<mxfile host="app.diagrams.net" modified="2023-07-21T08:50:39.649Z" agent="Mozilla/5.0 (Windows NT 10.0; Win64; x64) AppleWebKit/537.36 (KHTML, like Gecko) Chrome/115.0.0.0 Safari/537.36" etag="swm51rHf4geJLFxX5Amk" version="21.6.5" type="github">
  <diagram name="페이지-1" id="fw00KT8Gi9KflS2xxoFm">
    <mxGraphModel dx="870" dy="499" grid="1" gridSize="10" guides="1" tooltips="1" connect="1" arrows="1" fold="1" page="1" pageScale="1" pageWidth="827" pageHeight="1169" math="0" shadow="0">
      <root>
        <mxCell id="0" />
        <mxCell id="1" parent="0" />
        <mxCell id="w0SxSZEbC_f8xbL9rCBl-9" value="고객" style="whiteSpace=wrap;html=1;align=center;" vertex="1" parent="1">
          <mxGeometry x="364" y="610" width="100" height="40" as="geometry" />
        </mxCell>
        <mxCell id="w0SxSZEbC_f8xbL9rCBl-11" value="고객명" style="ellipse;whiteSpace=wrap;html=1;align=center;" vertex="1" parent="1">
          <mxGeometry x="364" y="530" width="100" height="40" as="geometry" />
        </mxCell>
        <mxCell id="w0SxSZEbC_f8xbL9rCBl-13" value="" style="endArrow=none;html=1;rounded=0;exitX=0.5;exitY=1;exitDx=0;exitDy=0;entryX=0.5;entryY=0;entryDx=0;entryDy=0;" edge="1" parent="1" source="w0SxSZEbC_f8xbL9rCBl-11" target="w0SxSZEbC_f8xbL9rCBl-9">
          <mxGeometry relative="1" as="geometry">
            <mxPoint x="364" y="559.66" as="sourcePoint" />
            <mxPoint x="460" y="580" as="targetPoint" />
          </mxGeometry>
        </mxCell>
        <mxCell id="w0SxSZEbC_f8xbL9rCBl-14" value="&lt;u&gt;전화번호&lt;/u&gt;" style="ellipse;whiteSpace=wrap;html=1;align=center;" vertex="1" parent="1">
          <mxGeometry x="470" y="545" width="100" height="40" as="geometry" />
        </mxCell>
        <mxCell id="w0SxSZEbC_f8xbL9rCBl-15" value="" style="endArrow=none;html=1;rounded=0;entryX=0.5;entryY=1;entryDx=0;entryDy=0;exitX=0.5;exitY=0;exitDx=0;exitDy=0;" edge="1" parent="1" source="w0SxSZEbC_f8xbL9rCBl-9" target="w0SxSZEbC_f8xbL9rCBl-14">
          <mxGeometry relative="1" as="geometry">
            <mxPoint x="310" y="670" as="sourcePoint" />
            <mxPoint x="470" y="670" as="targetPoint" />
          </mxGeometry>
        </mxCell>
        <mxCell id="w0SxSZEbC_f8xbL9rCBl-17" value="&lt;u&gt;이메일&lt;/u&gt;" style="ellipse;whiteSpace=wrap;html=1;align=center;" vertex="1" parent="1">
          <mxGeometry x="250" y="545" width="100" height="40" as="geometry" />
        </mxCell>
        <mxCell id="w0SxSZEbC_f8xbL9rCBl-18" value="주소" style="ellipse;whiteSpace=wrap;html=1;align=center;" vertex="1" parent="1">
          <mxGeometry x="340" y="720" width="100" height="40" as="geometry" />
        </mxCell>
        <mxCell id="w0SxSZEbC_f8xbL9rCBl-19" value="지역" style="ellipse;whiteSpace=wrap;html=1;align=center;" vertex="1" parent="1">
          <mxGeometry x="264" y="680" width="100" height="40" as="geometry" />
        </mxCell>
        <mxCell id="w0SxSZEbC_f8xbL9rCBl-20" value="가입일" style="ellipse;whiteSpace=wrap;html=1;align=center;" vertex="1" parent="1">
          <mxGeometry x="230" y="610" width="100" height="40" as="geometry" />
        </mxCell>
        <mxCell id="w0SxSZEbC_f8xbL9rCBl-22" value="" style="endArrow=none;html=1;rounded=0;entryX=0;entryY=0.5;entryDx=0;entryDy=0;exitX=1;exitY=0.5;exitDx=0;exitDy=0;" edge="1" parent="1" source="w0SxSZEbC_f8xbL9rCBl-20" target="w0SxSZEbC_f8xbL9rCBl-9">
          <mxGeometry relative="1" as="geometry">
            <mxPoint x="310" y="670" as="sourcePoint" />
            <mxPoint x="470" y="670" as="targetPoint" />
          </mxGeometry>
        </mxCell>
        <mxCell id="w0SxSZEbC_f8xbL9rCBl-23" value="" style="endArrow=none;html=1;rounded=0;entryX=0.5;entryY=0;entryDx=0;entryDy=0;exitX=0.5;exitY=1;exitDx=0;exitDy=0;" edge="1" parent="1" source="w0SxSZEbC_f8xbL9rCBl-9" target="w0SxSZEbC_f8xbL9rCBl-19">
          <mxGeometry relative="1" as="geometry">
            <mxPoint x="310" y="670" as="sourcePoint" />
            <mxPoint x="470" y="670" as="targetPoint" />
          </mxGeometry>
        </mxCell>
        <mxCell id="w0SxSZEbC_f8xbL9rCBl-24" value="" style="endArrow=none;html=1;rounded=0;exitX=0.5;exitY=1;exitDx=0;exitDy=0;entryX=0.5;entryY=0;entryDx=0;entryDy=0;" edge="1" parent="1" source="w0SxSZEbC_f8xbL9rCBl-17" target="w0SxSZEbC_f8xbL9rCBl-9">
          <mxGeometry relative="1" as="geometry">
            <mxPoint x="310" y="670" as="sourcePoint" />
            <mxPoint x="470" y="670" as="targetPoint" />
          </mxGeometry>
        </mxCell>
        <mxCell id="w0SxSZEbC_f8xbL9rCBl-27" value="" style="endArrow=none;html=1;rounded=0;exitX=0.5;exitY=1;exitDx=0;exitDy=0;entryX=0.5;entryY=0;entryDx=0;entryDy=0;" edge="1" parent="1" source="w0SxSZEbC_f8xbL9rCBl-9" target="w0SxSZEbC_f8xbL9rCBl-18">
          <mxGeometry relative="1" as="geometry">
            <mxPoint x="310" y="670" as="sourcePoint" />
            <mxPoint x="470" y="670" as="targetPoint" />
          </mxGeometry>
        </mxCell>
        <mxCell id="w0SxSZEbC_f8xbL9rCBl-28" value="&lt;u&gt;고객코드&lt;/u&gt;" style="ellipse;whiteSpace=wrap;html=1;align=center;" vertex="1" parent="1">
          <mxGeometry x="450" y="700" width="100" height="40" as="geometry" />
        </mxCell>
        <mxCell id="w0SxSZEbC_f8xbL9rCBl-29" value="" style="endArrow=none;html=1;rounded=0;exitX=0.5;exitY=1;exitDx=0;exitDy=0;entryX=0.5;entryY=0;entryDx=0;entryDy=0;" edge="1" parent="1" source="w0SxSZEbC_f8xbL9rCBl-9" target="w0SxSZEbC_f8xbL9rCBl-28">
          <mxGeometry relative="1" as="geometry">
            <mxPoint x="400" y="670" as="sourcePoint" />
            <mxPoint x="510" y="680" as="targetPoint" />
          </mxGeometry>
        </mxCell>
      </root>
    </mxGraphModel>
  </diagram>
</mxfile>
